<?xml version="1.0" encoding="UTF-8"?> <svg xmlns="http://www.w3.org/2000/svg" xmlns:xlink="http://www.w3.org/1999/xlink" width="75" zoomAndPan="magnify" viewBox="0 0 56.25 56.249997" height="75" preserveAspectRatio="xMidYMid meet" version="1.2"><defs><clipPath id="e43f30ef7d"><path d="M 4.835938 9.820312 L 50.949219 9.820312 L 50.949219 45.6875 L 4.835938 45.6875 Z M 4.835938 9.820312 "></path></clipPath><clipPath id="9f94eb2e5e"><path d="M 37.367188 9.84375 L 18.144531 9.84375 L 4.855469 43.855469 L 4.855469 45.667969 L 22.191406 45.667969 L 21.375 42.421875 L 18.378906 41.050781 C 17.546875 40.664062 17.011719 39.828125 17.011719 38.902344 L 17.011719 33.804688 L 16.777344 32.640625 C 16.644531 31.984375 16.570312 31.316406 16.570312 30.652344 C 16.570312 25.214844 21.113281 20.816406 27.765625 20.816406 C 34.421875 20.816406 38.964844 25.214844 38.964844 30.652344 C 38.964844 31.316406 38.898438 31.984375 38.757812 32.640625 L 38.511719 33.804688 L 38.511719 38.902344 C 38.511719 39.820312 37.976562 40.664062 37.140625 41.050781 L 34.15625 42.429688 L 33.339844 45.675781 L 50.65625 45.675781 L 50.65625 43.855469 Z M 37.367188 9.84375 "></path></clipPath><clipPath id="1006357db0"><path d="M 29.492188 33.839844 L 36.859375 33.839844 L 36.859375 39.925781 L 29.492188 39.925781 Z M 29.492188 33.839844 "></path></clipPath><clipPath id="b8b4c855bc"><path d="M 35.648438 34.140625 C 35.546875 34.039062 35.445312 33.953125 35.320312 33.878906 L 29.503906 36.875 C 29.597656 37.597656 29.945312 38.289062 30.554688 38.855469 C 31.953125 40.148438 34.25 40.148438 35.648438 38.855469 C 37.066406 37.558594 37.066406 35.4375 35.648438 34.140625 "></path></clipPath><clipPath id="72d2161bf5"><path d="M 25.648438 37.683594 L 29.8125 37.683594 L 29.8125 42.804688 L 25.648438 42.804688 Z M 25.648438 37.683594 "></path></clipPath><clipPath id="f1d10f6971"><path d="M 28.019531 37.699219 L 27.484375 37.699219 L 27.007812 39.5 L 25.796875 42.785156 L 29.691406 42.785156 L 28.480469 39.5 Z M 28.019531 37.699219 "></path></clipPath><clipPath id="ea890bbbd7"><path d="M 18.605469 33.839844 L 26 33.839844 L 26 39.925781 L 18.605469 39.925781 Z M 18.605469 33.839844 "></path></clipPath><clipPath id="27c4416a95"><path d="M 20.191406 33.878906 C 20.070312 33.953125 19.96875 34.039062 19.863281 34.140625 C 18.445312 35.4375 18.445312 37.558594 19.863281 38.855469 C 21.261719 40.148438 23.5625 40.148438 24.960938 38.855469 C 25.570312 38.289062 25.917969 37.597656 26 36.875 Z M 20.191406 33.878906 "></path></clipPath></defs><g id="7bc839f34a"><g clip-rule="nonzero" clip-path="url(#e43f30ef7d)"><g clip-rule="nonzero" clip-path="url(#9f94eb2e5e)"><rect x="0" width="56.25" y="0" height="56.249997" style="fill:#0080ff;fill-opacity:1;stroke:none;"></rect></g></g><g clip-rule="nonzero" clip-path="url(#1006357db0)"><g clip-rule="nonzero" clip-path="url(#b8b4c855bc)"><rect x="0" width="56.25" y="0" height="56.249997" style="fill:#0080ff;fill-opacity:1;stroke:none;"></rect></g></g><g clip-rule="nonzero" clip-path="url(#72d2161bf5)"><g clip-rule="nonzero" clip-path="url(#f1d10f6971)"><rect x="0" width="56.25" y="0" height="56.249997" style="fill:#0080ff;fill-opacity:1;stroke:none;"></rect></g></g><g clip-rule="nonzero" clip-path="url(#ea890bbbd7)"><g clip-rule="nonzero" clip-path="url(#27c4416a95)"><rect x="0" width="56.25" y="0" height="56.249997" style="fill:#0080ff;fill-opacity:1;stroke:none;"></rect></g></g></g></svg> 